<svg xmlns="http://www.w3.org/2000/svg" width="26" height="20" viewBox="0 0 26 20">
  <defs>
    <style>
      .cls-1 {
        fill: #fff;
        fill-rule: evenodd;
      }
    </style>
  </defs>
  <path id="Forma_1" data-name="Forma 1" class="cls-1" d="M635.285,1057h-22.57a1.7,1.7,0,0,0-1.715,1.67v16.66a1.7,1.7,0,0,0,1.715,1.67h22.57a1.7,1.7,0,0,0,1.715-1.67v-16.66A1.7,1.7,0,0,0,635.285,1057Zm-22.57,1.43h22.57a0.246,0.246,0,0,1,.245.24v11.09l-3.932-4.9a1.56,1.56,0,0,0-2.385-.09l-5.1,5.49a0.5,0.5,0,0,1-.55.07l-4.194-2.57a2.3,2.3,0,0,0-2.446.11l-4.452,3.29v-12.49A0.246,0.246,0,0,1,612.715,1058.43Zm22.57,17.14h-22.57a0.246,0.246,0,0,1-.245-0.24v-2.37l5.342-3.96a0.844,0.844,0,0,1,.773-0.03l4.194,2.57a1.99,1.99,0,0,0,2.424-.33l5.1-5.48a0.11,0.11,0,0,1,.07-0.04,0.1,0.1,0,0,1,.066.05l5.091,6.35v3.24A0.246,0.246,0,0,1,635.285,1075.57Zm-13.42-8.89a2.536,2.536,0,1,0-2.6-2.54A2.576,2.576,0,0,0,621.865,1066.68Zm0-3.64a1.105,1.105,0,1,1-1.134,1.1A1.122,1.122,0,0,1,621.865,1063.04Z" transform="translate(-611 -1057)"/>
</svg>
